<?xml version="1.0" encoding="utf-8"?>
<!DOCTYPE svg PUBLIC "-//W3C//DTD SVG 1.0//EN" "http://www.w3.org/TR/2001/REC-SVG-20010904/DTD/svg10.dtd">
<svg version="1.0" xmlns="http://www.w3.org/2000/svg" width="561px" height="378px" viewBox="0 0 561 378" preserveAspectRatio="xMidYMid meet">
 <g fill="none" stroke="#9f7fff" stroke-width="1">
  <path d="M113.5 78.5C84 88 63 114 54.5 143.5C52 152 51.5 161.5 50.5 170.5C48 189.5 49 207 51.5 226C52.5 234.5 53.5 243.5 55.5 252C61 271 73.5 288.5 90 299.5C102 308 117 311.5 131 314C140 316 151.5 319.5 161 319C180 317.5 204 313 219.5 301.5C238.5 288 250 265.5 258.5 244C272 210.5 281 175 294 141.5C304.5 115.5 316.5 88 342 73C352.5 67 363.5 64.5 375 62C382 61 389.5 58 396.5 58.5C405 59 413.5 61.5 421.5 63C446.5 67.5 471 74 487 95C502 113.5 507.5 134.5 510.5 157.5C517.5 208 511 276 459.5 301.5C453.5 304.5 447 307.5 440.5 309.5"/>
 </g>
</svg>