<?xml version="1.0" encoding="utf-8"?>
<svg xmlns="http://www.w3.org/2000/svg" viewBox="-1.1251 0.0938 225.3 43.55" width="225.3px" height="43.55px"><g data-v-0dd9719b="" fill="#450b68" class="basesvg" transform="matrix(1, 0, 0, 1, -1.125093936920166, 0.09375800192350425)" id="object-0"><g><path d="M13.47 0.3Q10.3 0.3 7.76-0.78 5.22-1.87 3.74-3.91 2.26-5.95 2.22-8.74L2.22-8.74 8.74-8.74Q8.87-6.87 10.06-5.78 11.26-4.69 13.34-4.69L13.34-4.69Q15.47-4.69 16.69-5.72 17.91-6.74 17.91-8.39L17.91-8.39Q17.91-9.74 17.08-10.6 16.25-11.47 15.02-11.97 13.78-12.47 11.6-13.08L11.6-13.08Q8.65-13.95 6.8-14.8 4.95-15.65 3.63-17.36 2.3-19.08 2.3-21.95L2.3-21.95Q2.3-24.64 3.65-26.64 5-28.64 7.43-29.71 9.87-30.77 13-30.77L13-30.77Q17.69-30.77 20.62-28.49 23.56-26.21 23.86-22.12L23.86-22.12 17.17-22.12Q17.08-23.69 15.84-24.71 14.6-25.73 12.56-25.73L12.56-25.73Q10.78-25.73 9.71-24.82 8.65-23.9 8.65-22.17L8.65-22.17Q8.65-20.95 9.45-20.14 10.26-19.34 11.45-18.84 12.65-18.34 14.82-17.69L14.82-17.69Q17.78-16.82 19.64-15.95 21.51-15.08 22.86-13.34 24.21-11.6 24.21-8.78L24.21-8.78Q24.21-6.35 22.95-4.26 21.69-2.17 19.25-0.93 16.82 0.3 13.47 0.3L13.47 0.3ZM51.85-12.56Q51.85-11.26 51.68-10.21L51.68-10.21 34.07-10.21Q34.29-7.61 35.9-6.13 37.51-4.65 39.85-4.65L39.85-4.65Q43.24-4.65 44.68-7.56L44.68-7.56 51.24-7.56Q50.2-4.09 47.24-1.85 44.29 0.39 39.98 0.39L39.98 0.39Q36.51 0.39 33.75-1.15 30.99-2.69 29.45-5.52 27.9-8.34 27.9-12.04L27.9-12.04Q27.9-15.78 29.42-18.6 30.94-21.43 33.68-22.95 36.42-24.47 39.98-24.47L39.98-24.47Q43.42-24.47 46.13-22.99 48.85-21.51 50.35-18.8 51.85-16.08 51.85-12.56L51.85-12.56ZM34.12-14.3L45.55-14.3Q45.5-16.65 43.85-18.06 42.2-19.47 39.81-19.47L39.81-19.47Q37.55-19.47 36.01-18.1 34.47-16.73 34.12-14.3L34.12-14.3ZM69.63-24.43Q73.93-24.43 76.58-21.71 79.23-18.99 79.23-14.13L79.23-14.13 79.23 0 73.15 0 73.15-13.3Q73.15-16.17 71.71-17.71 70.28-19.25 67.8-19.25L67.8-19.25Q65.28-19.25 63.82-17.71 62.37-16.17 62.37-13.3L62.37-13.3 62.37 0 56.28 0 56.28-24.08 62.37-24.08 62.37-21.08Q63.58-22.64 65.48-23.53 67.37-24.43 69.63-24.43L69.63-24.43ZM97.48-19.08L92.1-19.08 92.1-7.43Q92.1-6.22 92.68-5.67 93.27-5.13 94.66-5.13L94.66-5.13 97.48-5.13 97.48 0 93.66 0Q85.97 0 85.97-7.48L85.97-7.48 85.97-19.08 83.1-19.08 83.1-24.08 85.97-24.08 85.97-30.03 92.1-30.03 92.1-24.08 97.48-24.08 97.48-19.08ZM107.96-20.34Q109.13-22.25 111.02-23.34 112.91-24.43 115.35-24.43L115.35-24.43 115.35-18.04 113.74-18.04Q110.87-18.04 109.42-16.69 107.96-15.34 107.96-12L107.96-12 107.96 0 101.87 0 101.87-24.08 107.96-24.08 107.96-20.34ZM135.99-24.08L142.47-24.08 127.56 11.39 121.08 11.39 126.3-0.61 116.65-24.08 123.48-24.08 129.69-7.26 135.99-24.08Z" transform="translate(-2.2200000286102295, 32.15999984741211)"/></g><g data-gra="path-name-1" transform="translate(143.25,0)"><path d="M22.73-30.29L26.69-30.29 26.69 0 22.73 0 22.73-13.73 7.3-13.73 7.3 0 3.35 0 3.35-30.29 7.3-30.29 7.3-16.99 22.73-16.99 22.73-30.29ZM50.59-23.82L54.54-23.82 54.54 0 50.59 0 50.59-3.52Q49.46-1.7 47.44-0.67 45.42 0.35 42.98 0.35L42.98 0.35Q40.2 0.35 37.99-0.8 35.77-1.96 34.49-4.26 33.2-6.56 33.2-9.87L33.2-9.87 33.2-23.82 37.12-23.82 37.12-10.39Q37.12-6.87 38.9-4.98 40.68-3.09 43.77-3.09L43.77-3.09Q46.94-3.09 48.76-5.04 50.59-7 50.59-10.74L50.59-10.74 50.59-23.82ZM65.19-19.38Q66.41-21.51 68.76-22.86 71.1-24.21 74.1-24.21L74.1-24.21Q77.32-24.21 79.88-22.69 82.45-21.17 83.92-18.41 85.4-15.65 85.4-12L85.4-12Q85.4-8.39 83.92-5.56 82.45-2.74 79.86-1.17 77.28 0.39 74.1 0.39L74.1 0.39Q71.02 0.39 68.69-0.96 66.37-2.3 65.19-4.39L65.19-4.39 65.19 0 61.24 0 61.24-32.16 65.19-32.16 65.19-19.38ZM81.36-12Q81.36-14.69 80.27-16.69 79.19-18.69 77.34-19.73 75.49-20.77 73.28-20.77L73.28-20.77Q71.1-20.77 69.26-19.71 67.41-18.65 66.3-16.62 65.19-14.6 65.19-11.95L65.19-11.95Q65.19-9.26 66.3-7.24 67.41-5.22 69.26-4.15 71.1-3.09 73.28-3.09L73.28-3.09Q75.49-3.09 77.34-4.15 79.19-5.22 80.27-7.24 81.36-9.26 81.36-12L81.36-12Z" transform="translate(-3.3499999046325684, 32.15999984741211)"/></g></g></svg>