<svg width="561" height="378" viewBox="0 0 561 378" fill="none" xmlns="http://www.w3.org/2000/svg">
<path d="M560.537 184.554C560.537 220.789 554.047 253.424 541.067 282.458C527.966 311.492 509.156 334.468 484.637 351.385C460.118 368.303 431.092 376.99 397.559 377.447L397.559 265.655C420.035 264.169 437.823 256.625 450.924 243.022C464.025 229.305 470.575 210.559 470.575 186.783C470.575 162.436 464.385 143.289 452.006 129.344C439.746 115.398 423.701 108.425 403.869 108.425C387.644 108.425 374.362 113.169 364.026 122.657C353.57 132.144 345.336 143.918 339.327 157.978C333.317 172.152 326.647 191.698 319.315 216.617C308.859 250.338 298.522 277.771 288.306 298.918C278.09 320.065 262.706 338.183 242.153 353.271C221.48 368.474 193.896 376.076 159.402 376.076C127.071 376.076 98.886 368.36 74.8479 352.928C50.8098 337.497 32.3606 315.893 19.5002 288.116C6.76001 260.225 0.389886 228.391 0.389884 192.613C0.389882 139.003 14.0916 95.4515 41.495 61.9596C68.8984 28.3533 107.179 9.83552 156.337 6.4063L156.337 121.114C137.467 122.142 121.902 129.744 109.643 143.918C97.3836 158.092 91.2539 176.838 91.2539 200.157C91.2539 220.504 96.7225 236.792 107.66 249.023C118.717 261.14 134.643 267.198 155.436 267.198C170.099 267.198 182.298 262.626 192.034 253.481C201.649 244.222 209.461 232.792 215.471 219.189C221.48 205.472 228.391 186.211 236.204 161.407C246.66 127.572 257.117 100.024 267.573 78.7627C278.03 57.3873 293.715 38.9838 314.628 23.5524C335.541 8.12092 362.944 0.405197 396.838 0.405195C426.044 0.405194 453.207 7.60653 478.327 22.0092C503.447 36.4119 523.459 57.5587 538.362 85.4497C553.146 113.226 560.537 146.261 560.537 184.554Z" fill="#9F80FF"/>
</svg>
